<svg xmlns="http://www.w3.org/2000/svg" viewBox="0 0 248 32"><g clip-path="url(#a)"><mask id="b" width="32" height="32" x="0" y="0" maskUnits="userSpaceOnUse"><path fill="#fff" d="M31.4.7H.9v30.5h30.5z"/></mask><g mask="url(#b)"><path fill="#92e643" d="M31.4.7H.9v30.5h30.5z"/><path d="M19.2 12h-2.7v5.3h2.7zm-3 0h-2.7v5.3h2.7zm5.8 5.7h-5.5v13.5h5.4V17.7Zm-14 0h8.2v13.5h-5.5V19H8v12.2H6.7V17.7z"/><path fill="#fff" d="M41.7 8.4c.7 1.1-1.2 2.3-4.2 2.5-2.7.2-5.2-.5-6-1.6-.5-.8-2-1.5-3.8-1.9-1.6-.3-3.6-.5-5.5-.3-4.2.4-6.8 2-5.8 3.7-.7-1.1 1.2-2.3 4.2-2.5 2.7-.2 5.3.6 6 1.6.5.9 2 1.5 3.8 2 1.7.3 3.6.4 5.6.2 4.1-.4 6.7-2 5.7-3.7"/><path fill="#fff" d="M29 12.5a6 6 0 0 1-4 .1c-1-.3-1.2-1-.3-1.5.7-.3 1-.8.8-1.2s-.7-.8-1.6-1a9 9 0 0 0-5.8.3 6 6 0 0 1 4-.2c1.1.4 1.2 1 .3 1.5-.7.4-1 .9-.7 1.3.2.4.7.7 1.5 1a9 9 0 0 0 5.9-.3z"/></g><path fill="#92e643" d="M40 16.5v-1.8h-1.7V13h3.5v1.7h5.3v-3.5h-7V9.4h-1.8V6h1.8V4.2h8.8v1.7h1.7v1.8h-3.5V5.9h-5.3v3.5h7v1.8h1.8v3.5H49v1.8zm14.2 0v-1.8h-1.8V6h1.8V4.2h8.7v1.7h1.8v8.8H63v1.8h-8.7Zm1.7-1.8h5.3V6h-5.3v8.8Zm12.3 1.8V4.2h3.5v10.5h7v1.8H68.3Zm14.1-5.3V9.4h10.6v1.8zm14.1 5.3v-1.8h3.5V6h-3.5V4.2h10.5v1.7h-3.5v8.8h3.5v1.8zm12.3 0V4.2h3.5v1.7h1.8v1.8h1.7v1.7h1.8V4.2h3.5v12.3h-3.5V13h-1.8v-1.8H114V9.4h-1.8v7h-3.5Zm17.6 0v-1.8h-1.8V13h-1.7V7.7h1.7V5.9h1.8V4.2h7v1.7h1.8v1.8h-3.6V5.9H128v1.8h-1.7V13h1.7v1.7h3.5V13h3.6v1.7h-1.8v1.8zm12.3 0v-1.8h3.5V6h-3.5V4.2H149v1.7h-3.5v8.8h3.5v1.8h-10.5Zm12.3 0V4.2h3.5v1.7h1.8v1.8h1.7v1.7h1.8V4.2h3.5v12.3h-3.5V13h-1.8v-1.8h-1.7V9.4h-1.8v7H151Zm14.1 0V4.2h12.3v1.7h-8.8v3.5h7v1.8h-7v3.5h8.8v1.8zm14 0V4.2h10.6v1.7h1.7v5.3h-3.5V13h1.8v1.7h1.7v1.8h-5.2v-1.8h-1.8V13h-1.7v3.5zm3.6-5.3h3.5V9.4h1.7V6h-5.2v5.3Zm10.5 5.3V7.7h1.8V5.9h1.7V4.2h5.3v1.7h1.8v1.8h1.7v8.8H202V13h-5.3v3.5h-3.5Zm3.5-5.3h5.3V7.7h-1.8V5.9h-1.7v1.8h-1.8zm15.9 5.3V5.9h-3.6V4.2h10.6v1.7H216v10.6zm10.5 0v-1.8h-1.8V6h1.8V4.2h8.8v1.7h1.8v8.8h-1.8v1.8zm1.8-1.8h5.2V6h-5.2v8.8Zm10.5 1.8V4.2H246v1.7h1.7v5.3h-3.5V13h1.8v1.7h1.7v1.8h-5.2v-1.8h-1.8V13h-1.8v3.5h-3.5Zm3.5-5.3h3.6V9.4h1.7V6h-5.3v5.3Z"/><path fill="#fff" d="M43.4 26.7v.5h-1.1v-1.1h-.6V25H40v1h1.7v1.1h-2.2l-.1-.5V26H39v-1h.6l-.1-.6v-.6h2.3v-1.1h-2v-1.1h2.6v1.1h.5v3.4h.6v.6Zm11-.7h-.6v1.2h-3l-.1-.5V26h2.5v-1H51v-1.2h-.6v-1.1h.6v-1.1h3l.1.6v.5h-2.5v1.1h2.2V25h.6zm5.9-1h-.4v1h-.7v1.1h-2.3V26h-.7v-1h-.4v-1.2h.4v-1.1h.7v-1.1h2.3v1.1h.7v1.1h.4zm-1.1 0-.1-.6v-.6h-.4v-1.1h-1.4v1.1H57V25h.4v1h1.4v-1h.5Zm6.2 1.7v.5H62v-1.1h1v-5.6h-.8v-1.2h2v6.8h1.1zm5.9-.7h-.6v1.2h-3.1v-1.1H70V25h-2v-1.2h-.6v-1.1h.6v-1.1h3l.1.6v.5h-2.6v1.1h2.3V25h.6v1Zm5.4.7-.1.5h-3.4v-1.1h1.1v-5.6h-.8v-1.2h2v6.8h1.1v.6Zm3.1-.7h1.4l.1.7v.5H79v-1.1h-.7v-4.5h1.1V25h.4zm3-2.7v3.9h-1.1v-1.1h-.5V25h.5v-3.4h1l.1.6zm5.7 0v3.9h-.6v1.1h-.6v1.2H85v-1.2h1.7v-1.1h.6v-1.1h-.6V25h.6v-2.3h-1.8v1.1H85l.1.6v.6h.4v1h1.2v1.1H85V26h-.7v-1H84v-1.2h.4v-1.1h.7v-1.1h3.4zm5.3 2.7h-.6v1.2h-3.1v-1.1h2.5V25h-2.2v-1.2h-.6v-1.1h.6v-1.1h3l.1.6v.5h-2.6l.1.6v.5h2.2V25h.6zm11.5-1h-.6v1h-.5v1.1h-2.3v2.4h-1.1v-7.9h1.1v1.1h.6v1.1h-.6v2.3h1.7V25h.6v-1.2h-.6v-1.1h-1.1v-1.1h1.7v1.1h.5v1.1h.6zm5.7-1.7v.5h-1.2v-1.1h-1v1.1h-.4v2.3h.8l.1.6v.5h-2.9v-1.1h.9v-3.4h-.9v-1.1h1.4v1.1h.6v-1.1h2.1v1.1h.4v.6Zm5.6 1.7h-.5v1h-.7v1.1h-2.2V26h-.7v-1h-.4l-.1-.6v-.6h.5v-1.1h.7v-1.1h2.2v1.1h.7v1.1h.5zm-1.2 0v-1.2h-.4v-1.1h-1.4v1.1h-.4V25h.4v1h1.4v-1zm5.7-2.8v5h-.6v1.1h-.6v1.2h-1.7v-1.2h1.2v-1.1h.5v-4.5h-1l-.1-.5v-.6h2.3zm-1.2-1.7v-1.2h1.2v1.2zm7.9 3.3V25h-3l.1.5v.6h2.3l.1.6v.5h-2.9v-1.1h-.7V25h-.4v-1.2h.4v-1.1h.7v-1.1h2.8l.1.6v.5h.5zm-1.2-.5v-.6H125v1.1h1.8v-.5Zm6.8 1.7v1h-.5v1.1H130V26h-.6v-1h-.6v-1.2h.6v-1.1h.6v-1.1h2.8v1.1h.5v1.1h-1l-.1-.5v-.6h-1.7v1.1h-.5V25h.5v1h1.7v-1h1.1Zm5.1 1v1.2h-2.2l-.1-.5V26h-.5v-3.3h-1.1v-1.1h1v-2.3h1.2v2.3h1.7v1.1h-1.7v3.4h1.7Z"/></g><defs><clipPath id="a"><path fill="#fff" d="M1 .7h246.6v30.5H1z"/></clipPath></defs></svg>